<svg xmlns="http://www.w3.org/2000/svg" viewBox="0 0 55 45">
<path d="M22.00,17.00 L23.00,17.00 L23.00,18.00 L35.00,18.00 L35.00,19.00 L37.00,20.00 L37.00,24.00 L36.00,24.00 L36.00,26.00 L35.00,26.00 L35.00,27.00 L21.00,27.00 L21.00,26.00 L19.00,25.00 L19.00,19.00 L20.00,19.00 L20.00,18.00 L22.00,18.00Z" fill="#010c11" fill-opacity="0.95294" stroke="#010c11" stroke-opacity="0.95294" stroke-width=".45" stroke-linejoin="round"/>
<path d="M20.00,15.00 L24.00,15.00 L24.00,16.00 L20.00,16.00Z M19.00,16.00 L20.00,16.00 L20.00,17.00 L19.00,17.00Z M35.00,16.00 L36.00,16.00 L36.00,17.00 L35.00,17.00Z M18.00,17.00 L19.00,17.00 L19.00,18.00 L18.00,18.00Z M21.00,17.00 L22.00,17.00 L22.00,18.00 L21.00,18.00Z M23.00,17.00 L25.00,17.00 L25.00,18.00 L23.00,18.00Z M36.00,17.00 L37.00,17.00 L37.00,18.00 L36.00,18.00Z M37.00,18.00 L38.00,18.00 L38.00,19.00 L37.00,19.00Z M16.00,19.00 L17.00,19.00 L17.00,25.00 L16.00,25.00Z M38.00,19.00 L39.00,19.00 L39.00,20.00 L38.00,20.00Z M18.00,20.00 L19.00,20.00 L19.00,24.00 L18.00,24.00Z M36.00,24.00 L37.00,24.00 L37.00,25.00 L36.00,25.00Z M17.00,25.00 L18.00,25.00 L18.00,26.00 L17.00,26.00Z M38.00,25.00 L39.00,25.00 L39.00,26.00 L38.00,26.00Z M18.00,26.00 L19.00,26.00 L20.00,28.00 L18.00,28.00Z M36.00,27.00 L37.00,27.00 L37.00,28.00 L36.00,28.00Z M20.00,28.00 L29.00,28.00 L29.00,29.00 L20.00,29.00Z M35.00,28.00 L36.00,28.00 L36.00,29.00 L35.00,29.00Z" fill="#01131a" fill-opacity="0.94902" stroke="#01131a" stroke-opacity="0.94902" stroke-width=".45" stroke-linejoin="round"/>
<path d="M36.00,16.00 L37.00,16.00 L37.00,17.00 L36.00,17.00Z M37.00,17.00 L38.00,17.00 L38.00,18.00 L37.00,18.00Z M16.00,18.00 L17.00,18.00 L17.00,19.00 L16.00,19.00Z M16.00,25.00 L17.00,25.00 L17.00,26.00 L16.00,26.00Z M17.00,26.00 L18.00,26.00 L18.00,27.00 L17.00,27.00Z M38.00,26.00 L39.00,26.00 L39.00,27.00 L38.00,27.00Z M37.00,27.00 L38.00,27.00 L38.00,28.00 L37.00,28.00Z M19.00,28.00 L20.00,28.00 L20.00,29.00 L19.00,29.00Z" fill="#011922" fill-opacity="0.94902" stroke="#011922" stroke-opacity="0.94902" stroke-width=".45" stroke-linejoin="round"/>
<path d="M30.00,16.00 L35.00,16.00 L35.00,17.00 L30.00,17.00Z M25.00,17.00 L30.00,17.00 L30.00,18.00 L25.00,18.00Z M17.00,18.00 L18.00,18.00 L18.00,19.00 L17.00,19.00Z M18.00,19.00 L19.00,19.00 L19.00,20.00 L18.00,20.00Z M36.00,19.00 L37.00,19.00 L37.00,20.00 L36.00,20.00Z M37.00,20.00 L38.00,20.00 L38.00,21.00 L37.00,21.00Z M18.00,24.00 L19.00,24.00 L19.00,25.00 L18.00,25.00Z M38.00,24.00 L39.00,24.00 L39.00,25.00 L38.00,25.00Z M19.00,25.00 L20.00,25.00 L20.00,26.00 L19.00,26.00Z M36.00,25.00 L37.00,25.00 L37.00,26.00 L36.00,26.00Z M20.00,26.00 L21.00,26.00 L21.00,27.00 L20.00,27.00Z M35.00,26.00 L36.00,26.00 L36.00,27.00 L35.00,27.00Z M37.00,26.00 L38.00,26.00 L38.00,27.00 L37.00,27.00Z M29.00,28.00 L35.00,28.00 L35.00,29.00 L29.00,29.00Z" fill="#032530" fill-opacity="0.95686" stroke="#032530" stroke-opacity="0.95686" stroke-width=".45" stroke-linejoin="round"/>
<path d="M19.00,15.00 L20.00,15.00 L20.00,16.00 L19.00,16.00Z M24.00,15.00 L29.00,15.00 L30.00,17.00 L23.00,17.00Z M18.00,16.00 L19.00,16.00 L19.00,17.00 L18.00,17.00Z M20.00,16.00 L21.00,16.00 L21.00,18.00 L19.00,19.00 L19.00,17.00 L20.00,17.00Z M17.00,17.00 L18.00,17.00 L18.00,18.00 L17.00,18.00Z M30.00,17.00 L35.00,17.00 L35.00,18.00 L30.00,18.00Z M35.00,18.00 L36.00,18.00 L36.00,19.00 L35.00,19.00Z M38.00,18.00 L39.00,18.00 L39.00,19.00 L38.00,19.00Z M39.00,19.00 L40.00,19.00 L40.00,25.00 L39.00,25.00 L39.00,24.00 L37.00,25.00 L37.00,21.00 L38.00,21.00Z M20.00,27.00 L21.00,27.00 L21.00,28.00 L20.00,28.00Z M28.00,27.00 L34.00,27.00 L34.00,28.00 L28.00,28.00Z M35.00,27.00 L36.00,27.00 L36.00,28.00 L35.00,28.00Z M36.00,28.00 L37.00,28.00 L37.00,29.00 L36.00,29.00Z" fill="#053746" fill-opacity="0.96078" stroke="#053746" stroke-opacity="0.96078" stroke-width=".45" stroke-linejoin="round"/>
<path d="M21.00,16.00 L23.00,16.00 L23.00,17.00 L21.00,17.00Z M35.00,17.00 L36.00,17.00 L36.00,18.00 L35.00,18.00Z M18.00,18.00 L19.00,18.00 L19.00,19.00 L18.00,19.00Z M36.00,18.00 L37.00,18.00 L37.00,19.00 L36.00,19.00Z M17.00,19.00 L18.00,19.00 L18.00,21.00 L17.00,21.00Z M37.00,19.00 L38.00,19.00 L38.00,20.00 L37.00,20.00Z M17.00,23.00 L18.00,23.00 L18.00,24.00 L17.00,24.00Z M18.00,25.00 L19.00,25.00 L19.00,26.00 L18.00,26.00Z M37.00,25.00 L38.00,25.00 L38.00,26.00 L37.00,26.00Z M19.00,26.00 L20.00,26.00 L20.00,27.00 L19.00,27.00Z M36.00,26.00 L37.00,26.00 L37.00,27.00 L36.00,27.00Z M21.00,27.00 L28.00,27.00 L28.00,28.00 L21.00,28.00Z M34.00,27.00 L35.00,27.00 L35.00,28.00 L34.00,28.00Z" fill="#08475b" fill-opacity="0.96863" stroke="#08475b" stroke-opacity="0.96863" stroke-width=".45" stroke-linejoin="round"/>
<path d="M29.00,15.00 L36.00,15.00 L36.00,16.00 L29.00,16.00Z M17.00,21.00 L18.00,21.00 L18.00,23.00 L17.00,23.00Z M17.00,24.00 L18.00,24.00 L18.00,25.00 L17.00,25.00Z M39.00,25.00 L40.00,25.00 L40.00,26.00 L39.00,26.00Z M29.00,29.00 L36.00,29.00 L36.00,30.00 L29.00,30.00Z" fill="#0a586e" fill-opacity="0.96863" stroke="#0a586e" stroke-opacity="0.96863" stroke-width=".45" stroke-linejoin="round"/>
<path d="M37.00,16.00 L38.00,16.00 L38.00,17.00 L37.00,17.00Z M15.00,20.00 L16.00,20.00 L16.00,25.00 L15.00,25.00Z M16.00,26.00 L17.00,26.00 L17.00,27.00 L16.00,27.00Z M39.00,26.00 L40.00,26.00 L40.00,27.00 L39.00,27.00Z M17.00,27.00 L18.00,27.00 L18.00,28.00 L17.00,28.00Z M38.00,27.00 L39.00,27.00 L39.00,28.00 L38.00,28.00Z M18.00,28.00 L19.00,28.00 L19.00,29.00 L18.00,29.00Z M24.00,29.00 L29.00,29.00 L29.00,30.00 L24.00,30.00Z" fill="#0f7c9b" fill-opacity="0.93333" stroke="#0f7c9b" stroke-opacity="0.93333" stroke-width=".45" stroke-linejoin="round"/>
<path d="M16.00,17.00 L17.00,17.00 L17.00,18.00 L16.00,18.00Z M38.00,17.00 L39.00,17.00 L39.00,18.00 L38.00,18.00Z M15.00,19.00 L16.00,19.00 L16.00,20.00 L15.00,20.00Z M37.00,28.00 L38.00,28.00 L38.00,29.00 L37.00,29.00Z M23.00,29.00 L24.00,29.00 L24.00,30.00 L23.00,30.00Z" fill="#1084a5" fill-opacity="0.89412" stroke="#1084a5" stroke-opacity="0.89412" stroke-width=".45" stroke-linejoin="round"/>
<path d="M41.00,18.00 L42.00,18.00 L42.00,19.00 L41.00,19.00Z" fill="#00aaaa" fill-opacity="0.02353" stroke="#00aaaa" stroke-opacity="0.02353" stroke-width=".45" stroke-linejoin="round"/>
<path d="M28.00,31.00 L29.00,31.00 L29.00,32.00 L28.00,32.00Z" fill="#009fbf" fill-opacity="0.03137" stroke="#009fbf" stroke-opacity="0.03137" stroke-width=".45" stroke-linejoin="round"/>
<path d="M18.00,13.00 L19.00,13.00 L19.00,14.00 L18.00,14.00Z M36.00,13.00 L37.00,13.00 L37.00,14.00 L36.00,14.00Z M13.00,24.00 L14.00,24.00 L14.00,25.00 L13.00,25.00Z" fill="#00b6b6" fill-opacity="0.02745" stroke="#00b6b6" stroke-opacity="0.02745" stroke-width=".45" stroke-linejoin="round"/>
<path d="M22.00,14.00 L23.00,14.00 L23.00,15.00 L22.00,15.00Z M18.00,15.00 L19.00,15.00 L19.00,16.00 L18.00,16.00Z M36.00,15.00 L37.00,15.00 L37.00,16.00 L36.00,16.00Z M17.00,16.00 L18.00,16.00 L18.00,17.00 L17.00,17.00Z M39.00,18.00 L40.00,18.00 L40.00,19.00 L39.00,19.00Z M15.00,25.00 L16.00,25.00 L16.00,26.00 L15.00,26.00Z M19.00,29.00 L23.00,29.00 L23.00,30.00 L19.00,30.00Z M36.00,29.00 L37.00,29.00 L37.00,30.00 L36.00,30.00Z" fill="#149ec6" fill-opacity="0.90196" stroke="#149ec6" stroke-opacity="0.90196" stroke-width=".45" stroke-linejoin="round"/>
<path d="M20.00,14.00 L22.00,14.00 L22.00,15.00 L20.00,15.00Z M23.00,14.00 L24.00,14.00 L24.00,15.00 L23.00,15.00Z M15.00,18.00 L16.00,18.00 L16.00,19.00 L15.00,19.00Z" fill="#14a0c6" fill-opacity="0.90196" stroke="#14a0c6" stroke-opacity="0.90196" stroke-width=".45" stroke-linejoin="round"/>
<path d="M29.00,14.00 L30.00,14.00 L30.00,15.00 L29.00,15.00Z M40.00,25.00 L41.00,25.00 L41.00,26.00 L40.00,26.00Z" fill="#13a2ca" fill-opacity="0.58431" stroke="#13a2ca" stroke-opacity="0.58431" stroke-width=".45" stroke-linejoin="round"/>
<path d="M24.00,14.00 L29.00,14.00 L29.00,15.00 L24.00,15.00Z M40.00,20.00 L41.00,20.00 L41.00,25.00 L40.00,25.00Z" fill="#14a5ce" fill-opacity="0.72941" stroke="#14a5ce" stroke-opacity="0.72941" stroke-width=".45" stroke-linejoin="round"/>
<path d="M30.00,13.00 L31.00,13.00 L31.00,14.00 L30.00,14.00Z M41.00,25.00 L42.00,25.00 L42.00,26.00 L41.00,26.00Z" fill="#149dd8" fill-opacity="0.05098" stroke="#149dd8" stroke-opacity="0.05098" stroke-width=".45" stroke-linejoin="round"/>
<path d="M21.00,13.00 L22.00,13.00 L22.00,14.00 L21.00,14.00Z M25.00,13.00 L28.00,13.00 L28.00,14.00 L25.00,14.00Z M16.00,15.00 L17.00,15.00 L17.00,16.00 L16.00,16.00Z M38.00,15.00 L39.00,15.00 L39.00,16.00 L38.00,16.00Z M40.00,17.00 L41.00,17.00 L41.00,18.00 L40.00,18.00Z M14.00,18.00 L15.00,18.00 L15.00,19.00 L14.00,19.00Z M41.00,20.00 L42.00,20.00 L42.00,24.00 L41.00,24.00Z M13.00,22.00 L14.00,22.00 L14.00,23.00 L13.00,23.00Z M15.00,27.00 L16.00,27.00 L16.00,28.00 L15.00,28.00Z M39.00,28.00 L40.00,28.00 L40.00,29.00 L39.00,29.00Z M17.00,29.00 L18.00,29.00 L18.00,30.00 L17.00,30.00Z M18.00,30.00 L19.00,30.00 L19.00,31.00 L18.00,31.00Z M26.00,31.00 L27.00,31.00 L27.00,32.00 L26.00,32.00Z M34.00,31.00 L35.00,31.00 L35.00,32.00 L34.00,32.00Z M36.00,31.00 L37.00,31.00 L37.00,32.00 L36.00,32.00Z" fill="#0eaad5" fill-opacity="0.05882" stroke="#0eaad5" stroke-opacity="0.05882" stroke-width=".45" stroke-linejoin="round"/>
<path d="M19.00,14.00 L20.00,14.00 L20.00,15.00 L19.00,15.00Z M40.00,19.00 L41.00,19.00 L41.00,20.00 L40.00,20.00Z" fill="#15a7d1" fill-opacity="0.85098" stroke="#15a7d1" stroke-opacity="0.85098" stroke-width=".45" stroke-linejoin="round"/>
<path d="M23.00,13.00 L24.00,13.00 L24.00,14.00 L23.00,14.00Z M28.00,13.00 L30.00,13.00 L30.00,14.00 L28.00,14.00Z M32.00,13.00 L34.00,13.00 L34.00,14.00 L32.00,14.00Z M41.00,19.00 L42.00,19.00 L42.00,20.00 L41.00,20.00Z M41.00,24.00 L42.00,24.00 L42.00,25.00 L41.00,25.00Z M14.00,26.00 L15.00,26.00 L15.00,27.00 L14.00,27.00Z M41.00,26.00 L42.00,26.00 L42.00,27.00 L41.00,27.00Z M16.00,28.00 L17.00,28.00 L17.00,29.00 L16.00,29.00Z M38.00,29.00 L39.00,29.00 L39.00,30.00 L38.00,30.00Z M19.00,30.00 L22.00,30.00 L22.00,31.00 L19.00,31.00Z M37.00,30.00 L38.00,30.00 L38.00,31.00 L37.00,31.00Z M29.00,31.00 L30.00,31.00 L30.00,32.00 L29.00,32.00Z M31.00,31.00 L33.00,31.00 L33.00,32.00 L31.00,32.00Z" fill="#0cb5d5" fill-opacity="0.05882" stroke="#0cb5d5" stroke-opacity="0.05882" stroke-width=".45" stroke-linejoin="round"/>
<path d="M13.00,21.00 L14.00,21.00 L14.00,22.00 L13.00,22.00Z M25.00,31.00 L26.00,31.00 L26.00,32.00 L25.00,32.00Z" fill="#0099ff" fill-opacity="0.01961" stroke="#0099ff" stroke-opacity="0.01961" stroke-width=".45" stroke-linejoin="round"/>
<path d="M34.00,13.00 L35.00,13.00 L35.00,14.00 L34.00,14.00Z M37.00,14.00 L38.00,14.00 L38.00,15.00 L37.00,15.00Z M22.00,30.00 L23.00,30.00 L23.00,31.00 L22.00,31.00Z M30.00,31.00 L31.00,31.00 L31.00,32.00 L30.00,32.00Z" fill="#0babe3" fill-opacity="0.06275" stroke="#0babe3" stroke-opacity="0.06275" stroke-width=".45" stroke-linejoin="round"/>
<path d="M14.00,20.00 L15.00,20.00 L15.00,21.00 L14.00,21.00Z M28.00,30.00 L29.00,30.00 L29.00,31.00 L28.00,31.00Z" fill="#16aeda" fill-opacity="0.31765" stroke="#16aeda" stroke-opacity="0.31765" stroke-width=".45" stroke-linejoin="round"/>
<path d="M30.00,14.00 L34.00,14.00 L34.00,15.00 L30.00,15.00Z M37.00,15.00 L38.00,15.00 L38.00,16.00 L37.00,16.00Z M38.00,16.00 L39.00,16.00 L39.00,17.00 L38.00,17.00Z M15.00,26.00 L16.00,26.00 L16.00,27.00 L15.00,27.00Z M40.00,26.00 L41.00,26.00 L41.00,27.00 L40.00,27.00Z M16.00,27.00 L17.00,27.00 L17.00,28.00 L16.00,28.00Z M39.00,27.00 L40.00,27.00 L40.00,28.00 L39.00,28.00Z M17.00,28.00 L18.00,28.00 L18.00,29.00 L17.00,29.00Z M38.00,28.00 L39.00,28.00 L39.00,29.00 L38.00,29.00Z M18.00,29.00 L19.00,29.00 L19.00,30.00 L18.00,30.00Z M31.00,30.00 L36.00,30.00 L36.00,31.00 L31.00,31.00Z" fill="#15b1dc" fill-opacity="0.51373" stroke="#15b1dc" stroke-opacity="0.51373" stroke-width=".45" stroke-linejoin="round"/>
<path d="M18.00,14.00 L19.00,14.00 L19.00,15.00 L18.00,15.00Z M36.00,14.00 L37.00,14.00 L37.00,15.00 L36.00,15.00Z M14.00,19.00 L15.00,19.00 L15.00,20.00 L14.00,20.00Z M14.00,21.00 L15.00,21.00 L15.00,26.00 L14.00,26.00Z M23.00,30.00 L25.00,30.00 L25.00,31.00 L23.00,31.00Z M26.00,30.00 L28.00,30.00 L28.00,31.00 L26.00,31.00Z" fill="#16b0dc" fill-opacity="0.30980" stroke="#16b0dc" stroke-opacity="0.30980" stroke-width=".45" stroke-linejoin="round"/>
<path d="M34.00,14.00 L36.00,14.00 L36.00,15.00 L34.00,15.00Z M17.00,15.00 L18.00,15.00 L18.00,16.00 L17.00,16.00Z M16.00,16.00 L17.00,16.00 L17.00,17.00 L16.00,17.00Z M15.00,17.00 L16.00,17.00 L16.00,18.00 L15.00,18.00Z M39.00,17.00 L40.00,17.00 L40.00,18.00 L39.00,18.00Z M40.00,18.00 L41.00,18.00 L41.00,19.00 L40.00,19.00Z M37.00,29.00 L38.00,29.00 L38.00,30.00 L37.00,30.00Z M29.00,30.00 L31.00,30.00 L31.00,31.00 L29.00,31.00Z M36.00,30.00 L37.00,30.00 L37.00,31.00 L36.00,31.00Z" fill="#15b2dd" fill-opacity="0.48627" stroke="#15b2dd" stroke-opacity="0.48627" stroke-width=".45" stroke-linejoin="round"/>
<path d="M25.00,30.00 L26.00,30.00 L26.00,31.00 L25.00,31.00Z" fill="#14b3e1" fill-opacity="0.30196" stroke="#14b3e1" stroke-opacity="0.30196" stroke-width=".45" stroke-linejoin="round"/>
<path d="M20.00,13.00 L21.00,13.00 L21.00,14.00 L20.00,14.00Z M22.00,13.00 L23.00,13.00 L23.00,14.00 L22.00,14.00Z M24.00,13.00 L25.00,13.00 L25.00,14.00 L24.00,14.00Z M31.00,13.00 L32.00,13.00 L32.00,14.00 L31.00,14.00Z M35.00,13.00 L36.00,13.00 L36.00,14.00 L35.00,14.00Z M17.00,14.00 L18.00,14.00 L18.00,15.00 L17.00,15.00Z M14.00,17.00 L15.00,17.00 L15.00,18.00 L14.00,18.00Z M40.00,27.00 L41.00,27.00 L41.00,28.00 L40.00,28.00Z M33.00,31.00 L34.00,31.00 L34.00,32.00 L33.00,32.00Z M35.00,31.00 L36.00,31.00 L36.00,32.00 L35.00,32.00Z" fill="#0eb8e8" fill-opacity="0.05098" stroke="#0eb8e8" stroke-opacity="0.05098" stroke-width=".45" stroke-linejoin="round"/>
<path d="M19.00,13.00 L20.00,13.00 L20.00,14.00 L19.00,14.00Z M15.00,16.00 L16.00,16.00 L16.00,17.00 L15.00,17.00Z M39.00,16.00 L40.00,16.00 L40.00,17.00 L39.00,17.00Z" fill="#20afdf" fill-opacity="0.06275" stroke="#20afdf" stroke-opacity="0.06275" stroke-width=".45" stroke-linejoin="round"/>
<path d="M13.00,23.00 L14.00,23.00 L14.00,24.00 L13.00,24.00Z M27.00,31.00 L28.00,31.00 L28.00,32.00 L27.00,32.00Z" fill="#00d4ff" fill-opacity="0.02353" stroke="#00d4ff" stroke-opacity="0.02353" stroke-width=".45" stroke-linejoin="round"/>
</svg>
