<svg xmlns="http://www.w3.org/2000/svg" viewBox="0 0 160 160"><title>skill-wave: authored vector draft</title><defs>
<linearGradient id="metal" x1="0" y1="0" x2="1" y2="1"><stop stop-color="#fcffff"/><stop offset=".22" stop-color="#8d98a8"/><stop offset=".37" stop-color="#131b28"/><stop offset=".52" stop-color="#323b48"/><stop offset=".73" stop-color="#dae4ee"/><stop offset="1" stop-color="#4a5362"/></linearGradient>
<linearGradient id="dark" x1="0" y1="0" x2="1" y2="1"><stop stop-color="#718091"/><stop offset=".28" stop-color="#141b25"/><stop offset=".65" stop-color="#080d15"/><stop offset="1" stop-color="#657282"/></linearGradient>
<linearGradient id="glass" x1="0" y1="0" x2="1" y2="1"><stop stop-color="#fff" stop-opacity=".95"/><stop offset=".28" stop-color="#d8e5f5" stop-opacity=".38"/><stop offset=".7" stop-color="#eff8ff" stop-opacity=".64"/><stop offset="1" stop-color="#fff" stop-opacity=".98"/></linearGradient>
<linearGradient id="light" x1="0" y1="0" x2="1" y2="0"><stop stop-color="#fff" stop-opacity="0"/><stop offset=".6" stop-color="#edf5ff" stop-opacity=".55"/><stop offset="1" stop-color="#fff"/></linearGradient>
<radialGradient id="halo"><stop stop-color="#edf5ff" stop-opacity=".72"/><stop offset=".35" stop-color="#dbe9ff" stop-opacity=".32"/><stop offset=".68" stop-color="#ccdfff" stop-opacity=".12"/><stop offset="1" stop-color="#d7e8ff" stop-opacity="0"/></radialGradient>
<radialGradient id="core"><stop stop-color="#fff"/><stop offset=".18" stop-color="#fff" stop-opacity=".95"/><stop offset=".48" stop-color="#eaf3ff" stop-opacity=".4"/><stop offset="1" stop-color="#dbe9ff" stop-opacity="0"/></radialGradient>
<linearGradient id="armor" x1="0" y1="0" x2="1" y2="1"><stop stop-color="#303968"/><stop offset=".3" stop-color="#101b40"/><stop offset=".58" stop-color="#050a1d"/><stop offset="1" stop-color="#02040c"/></linearGradient>
<linearGradient id="purple" x1="0" y1="0" x2="1" y2="1"><stop stop-color="#ffc9ff"/><stop offset=".25" stop-color="#b620ff"/><stop offset=".55" stop-color="#421791"/><stop offset="1" stop-color="#080a26"/></linearGradient>
<linearGradient id="plate" x1="0" y1="0" x2="1" y2="1"><stop stop-color="#41497f"/><stop offset=".45" stop-color="#1c2b51"/><stop offset="1" stop-color="#040716"/></linearGradient>
</defs><ellipse cx="96" cy="80" rx="65" ry="74" fill="url(#halo)" opacity="0.78"/><path d="M46 20 C102 20 145 50 142 81 C141 113 103 136 58 140 C93 124 127 109 127 80 C127 54 88 31 46 20Z" fill="url(#glass)" opacity="1" stroke-linejoin="round" stroke-linecap="round"/><path d="M46 20 C102 20 145 50 142 81 C141 113 103 136 58 140 C93 124 127 109 127 80 C127 54 88 31 46 20Z" fill="none" stroke="#f4f9ff" stroke-width="12.7" opacity="0.025" stroke-linejoin="round" stroke-linecap="round"/><path d="M46 20 C102 20 145 50 142 81 C141 113 103 136 58 140 C93 124 127 109 127 80 C127 54 88 31 46 20Z" fill="none" stroke="#f4f9ff" stroke-width="7.7" opacity="0.055" stroke-linejoin="round" stroke-linecap="round"/><path d="M46 20 C102 20 145 50 142 81 C141 113 103 136 58 140 C93 124 127 109 127 80 C127 54 88 31 46 20Z" fill="none" stroke="#f4f9ff" stroke-width="4.7" opacity="0.1" stroke-linejoin="round" stroke-linecap="round"/><path d="M46 20 C102 20 145 50 142 81 C141 113 103 136 58 140 C93 124 127 109 127 80 C127 54 88 31 46 20Z" fill="none" stroke="#f4f9ff" stroke-width="2.5" opacity="0.23" stroke-linejoin="round" stroke-linecap="round"/><path d="M46 20 C102 20 145 50 142 81 C141 113 103 136 58 140 C93 124 127 109 127 80 C127 54 88 31 46 20Z" fill="none" stroke="#f4f9ff" stroke-width="0.7" opacity="0.92" stroke-linejoin="round" stroke-linecap="round"/><path d="M76 21 C122 40 149 64 147 87 C145 108 127 127 106 134 C127 109 137 94 136 80 C134 54 110 36 76 21Z" fill="url(#glass)" opacity="1" stroke-linejoin="round" stroke-linecap="round"/><path d="M76 21 C122 40 149 64 147 87 C145 108 127 127 106 134 C127 109 137 94 136 80 C134 54 110 36 76 21Z" fill="none" stroke="#f4f9ff" stroke-width="12.7" opacity="0.025" stroke-linejoin="round" stroke-linecap="round"/><path d="M76 21 C122 40 149 64 147 87 C145 108 127 127 106 134 C127 109 137 94 136 80 C134 54 110 36 76 21Z" fill="none" stroke="#f4f9ff" stroke-width="7.7" opacity="0.055" stroke-linejoin="round" stroke-linecap="round"/><path d="M76 21 C122 40 149 64 147 87 C145 108 127 127 106 134 C127 109 137 94 136 80 C134 54 110 36 76 21Z" fill="none" stroke="#f4f9ff" stroke-width="4.7" opacity="0.1" stroke-linejoin="round" stroke-linecap="round"/><path d="M76 21 C122 40 149 64 147 87 C145 108 127 127 106 134 C127 109 137 94 136 80 C134 54 110 36 76 21Z" fill="none" stroke="#f4f9ff" stroke-width="2.5" opacity="0.23" stroke-linejoin="round" stroke-linecap="round"/><path d="M76 21 C122 40 149 64 147 87 C145 108 127 127 106 134 C127 109 137 94 136 80 C134 54 110 36 76 21Z" fill="none" stroke="#f4f9ff" stroke-width="0.7" opacity="0.92" stroke-linejoin="round" stroke-linecap="round"/><path d="M40 37 C87 42 124 62 126 80 C126 103 82 125 41 126 C87 110 112 93 111 81 C111 67 83 51 40 37Z" fill="url(#glass)" opacity="1" stroke-linejoin="round" stroke-linecap="round"/><path d="M40 37 C87 42 124 62 126 80 C126 103 82 125 41 126 C87 110 112 93 111 81 C111 67 83 51 40 37Z" fill="none" stroke="#f4f9ff" stroke-width="12.7" opacity="0.025" stroke-linejoin="round" stroke-linecap="round"/><path d="M40 37 C87 42 124 62 126 80 C126 103 82 125 41 126 C87 110 112 93 111 81 C111 67 83 51 40 37Z" fill="none" stroke="#f4f9ff" stroke-width="7.7" opacity="0.055" stroke-linejoin="round" stroke-linecap="round"/><path d="M40 37 C87 42 124 62 126 80 C126 103 82 125 41 126 C87 110 112 93 111 81 C111 67 83 51 40 37Z" fill="none" stroke="#f4f9ff" stroke-width="4.7" opacity="0.1" stroke-linejoin="round" stroke-linecap="round"/><path d="M40 37 C87 42 124 62 126 80 C126 103 82 125 41 126 C87 110 112 93 111 81 C111 67 83 51 40 37Z" fill="none" stroke="#f4f9ff" stroke-width="2.5" opacity="0.23" stroke-linejoin="round" stroke-linecap="round"/><path d="M40 37 C87 42 124 62 126 80 C126 103 82 125 41 126 C87 110 112 93 111 81 C111 67 83 51 40 37Z" fill="none" stroke="#f4f9ff" stroke-width="0.7" opacity="0.92" stroke-linejoin="round" stroke-linecap="round"/><path d="M46 20 C103 23 142 49 142 80 C140 110 109 134 58 140" fill="none" stroke="#f4f9ff" stroke-width="14.3" opacity="0.025" stroke-linejoin="round" stroke-linecap="round"/><path d="M46 20 C103 23 142 49 142 80 C140 110 109 134 58 140" fill="none" stroke="#f4f9ff" stroke-width="9.3" opacity="0.055" stroke-linejoin="round" stroke-linecap="round"/><path d="M46 20 C103 23 142 49 142 80 C140 110 109 134 58 140" fill="none" stroke="#f4f9ff" stroke-width="6.3" opacity="0.1" stroke-linejoin="round" stroke-linecap="round"/><path d="M46 20 C103 23 142 49 142 80 C140 110 109 134 58 140" fill="none" stroke="#f4f9ff" stroke-width="4.1" opacity="0.23" stroke-linejoin="round" stroke-linecap="round"/><path d="M46 20 C103 23 142 49 142 80 C140 110 109 134 58 140" fill="none" stroke="#f4f9ff" stroke-width="2.3" opacity="0.92" stroke-linejoin="round" stroke-linecap="round"/><path d="M69 35 C112 43 125 63 126 80 C125 103 108 121 67 131" fill="none" stroke="#f4f9ff" stroke-width="14.3" opacity="0.025" stroke-linejoin="round" stroke-linecap="round"/><path d="M69 35 C112 43 125 63 126 80 C125 103 108 121 67 131" fill="none" stroke="#f4f9ff" stroke-width="9.3" opacity="0.055" stroke-linejoin="round" stroke-linecap="round"/><path d="M69 35 C112 43 125 63 126 80 C125 103 108 121 67 131" fill="none" stroke="#f4f9ff" stroke-width="6.3" opacity="0.1" stroke-linejoin="round" stroke-linecap="round"/><path d="M69 35 C112 43 125 63 126 80 C125 103 108 121 67 131" fill="none" stroke="#f4f9ff" stroke-width="4.1" opacity="0.23" stroke-linejoin="round" stroke-linecap="round"/><path d="M69 35 C112 43 125 63 126 80 C125 103 108 121 67 131" fill="none" stroke="#f4f9ff" stroke-width="2.3" opacity="0.92" stroke-linejoin="round" stroke-linecap="round"/><path d="M24 39 Q109 46 132 80 Q112 109 23 123" fill="none" stroke="#f4f9ff" stroke-width="13.3" opacity="0.025" stroke-linejoin="round" stroke-linecap="round"/><path d="M24 39 Q109 46 132 80 Q112 109 23 123" fill="none" stroke="#f4f9ff" stroke-width="8.3" opacity="0.055" stroke-linejoin="round" stroke-linecap="round"/><path d="M24 39 Q109 46 132 80 Q112 109 23 123" fill="none" stroke="#f4f9ff" stroke-width="5.3" opacity="0.1" stroke-linejoin="round" stroke-linecap="round"/><path d="M24 39 Q109 46 132 80 Q112 109 23 123" fill="none" stroke="#f4f9ff" stroke-width="3.1" opacity="0.23" stroke-linejoin="round" stroke-linecap="round"/><path d="M24 39 Q109 46 132 80 Q112 109 23 123" fill="none" stroke="#f4f9ff" stroke-width="1.3" opacity="0.92" stroke-linejoin="round" stroke-linecap="round"/><path d="M8 70 L62 64 108 79 60 74Z" fill="url(#light)" opacity="1" stroke-linejoin="round" stroke-linecap="round"/><path d="M8 70 L62 64 108 79 60 74Z" fill="none" stroke="#f4f9ff" stroke-width="12.55" opacity="0.015" stroke-linejoin="round" stroke-linecap="round"/><path d="M8 70 L62 64 108 79 60 74Z" fill="none" stroke="#f4f9ff" stroke-width="7.55" opacity="0.033" stroke-linejoin="round" stroke-linecap="round"/><path d="M8 70 L62 64 108 79 60 74Z" fill="none" stroke="#f4f9ff" stroke-width="4.55" opacity="0.06" stroke-linejoin="round" stroke-linecap="round"/><path d="M8 70 L62 64 108 79 60 74Z" fill="none" stroke="#f4f9ff" stroke-width="2.35" opacity="0.138" stroke-linejoin="round" stroke-linecap="round"/><path d="M8 70 L62 64 108 79 60 74Z" fill="none" stroke="#f4f9ff" stroke-width="0.55" opacity="0.552" stroke-linejoin="round" stroke-linecap="round"/><path d="M6 85 L64 78 111 81 61 89Z" fill="url(#light)" opacity="1" stroke-linejoin="round" stroke-linecap="round"/><path d="M6 85 L64 78 111 81 61 89Z" fill="none" stroke="#f4f9ff" stroke-width="12.55" opacity="0.015" stroke-linejoin="round" stroke-linecap="round"/><path d="M6 85 L64 78 111 81 61 89Z" fill="none" stroke="#f4f9ff" stroke-width="7.55" opacity="0.033" stroke-linejoin="round" stroke-linecap="round"/><path d="M6 85 L64 78 111 81 61 89Z" fill="none" stroke="#f4f9ff" stroke-width="4.55" opacity="0.06" stroke-linejoin="round" stroke-linecap="round"/><path d="M6 85 L64 78 111 81 61 89Z" fill="none" stroke="#f4f9ff" stroke-width="2.35" opacity="0.138" stroke-linejoin="round" stroke-linecap="round"/><path d="M6 85 L64 78 111 81 61 89Z" fill="none" stroke="#f4f9ff" stroke-width="0.55" opacity="0.552" stroke-linejoin="round" stroke-linecap="round"/><path d="M21 97 L65 91 111 83 65 100Z" fill="url(#light)" opacity="1" stroke-linejoin="round" stroke-linecap="round"/><path d="M21 97 L65 91 111 83 65 100Z" fill="none" stroke="#f4f9ff" stroke-width="12.55" opacity="0.015" stroke-linejoin="round" stroke-linecap="round"/><path d="M21 97 L65 91 111 83 65 100Z" fill="none" stroke="#f4f9ff" stroke-width="7.55" opacity="0.033" stroke-linejoin="round" stroke-linecap="round"/><path d="M21 97 L65 91 111 83 65 100Z" fill="none" stroke="#f4f9ff" stroke-width="4.55" opacity="0.06" stroke-linejoin="round" stroke-linecap="round"/><path d="M21 97 L65 91 111 83 65 100Z" fill="none" stroke="#f4f9ff" stroke-width="2.35" opacity="0.138" stroke-linejoin="round" stroke-linecap="round"/><path d="M21 97 L65 91 111 83 65 100Z" fill="none" stroke="#f4f9ff" stroke-width="0.55" opacity="0.552" stroke-linejoin="round" stroke-linecap="round"/><path d="M22 52 L65 53 114 77 72 63Z" fill="url(#light)" opacity="1" stroke-linejoin="round" stroke-linecap="round"/><path d="M22 52 L65 53 114 77 72 63Z" fill="none" stroke="#f4f9ff" stroke-width="12.55" opacity="0.015" stroke-linejoin="round" stroke-linecap="round"/><path d="M22 52 L65 53 114 77 72 63Z" fill="none" stroke="#f4f9ff" stroke-width="7.55" opacity="0.033" stroke-linejoin="round" stroke-linecap="round"/><path d="M22 52 L65 53 114 77 72 63Z" fill="none" stroke="#f4f9ff" stroke-width="4.55" opacity="0.06" stroke-linejoin="round" stroke-linecap="round"/><path d="M22 52 L65 53 114 77 72 63Z" fill="none" stroke="#f4f9ff" stroke-width="2.35" opacity="0.138" stroke-linejoin="round" stroke-linecap="round"/><path d="M22 52 L65 53 114 77 72 63Z" fill="none" stroke="#f4f9ff" stroke-width="0.55" opacity="0.552" stroke-linejoin="round" stroke-linecap="round"/><path d="M37 111 L65 98 111 84 77 108Z" fill="url(#light)" opacity="1" stroke-linejoin="round" stroke-linecap="round"/><path d="M37 111 L65 98 111 84 77 108Z" fill="none" stroke="#f4f9ff" stroke-width="12.55" opacity="0.015" stroke-linejoin="round" stroke-linecap="round"/><path d="M37 111 L65 98 111 84 77 108Z" fill="none" stroke="#f4f9ff" stroke-width="7.55" opacity="0.033" stroke-linejoin="round" stroke-linecap="round"/><path d="M37 111 L65 98 111 84 77 108Z" fill="none" stroke="#f4f9ff" stroke-width="4.55" opacity="0.06" stroke-linejoin="round" stroke-linecap="round"/><path d="M37 111 L65 98 111 84 77 108Z" fill="none" stroke="#f4f9ff" stroke-width="2.35" opacity="0.138" stroke-linejoin="round" stroke-linecap="round"/><path d="M37 111 L65 98 111 84 77 108Z" fill="none" stroke="#f4f9ff" stroke-width="0.55" opacity="0.552" stroke-linejoin="round" stroke-linecap="round"/><path d="M10 43.0 Q62 61.5 107 70.3" fill="none" stroke="#f4f9ff" stroke-width="12.35" opacity="0.007000000000000001" stroke-linejoin="round" stroke-linecap="round"/><path d="M10 43.0 Q62 61.5 107 70.3" fill="none" stroke="#f4f9ff" stroke-width="7.35" opacity="0.015400000000000002" stroke-linejoin="round" stroke-linecap="round"/><path d="M10 43.0 Q62 61.5 107 70.3" fill="none" stroke="#f4f9ff" stroke-width="4.35" opacity="0.028000000000000004" stroke-linejoin="round" stroke-linecap="round"/><path d="M10 43.0 Q62 61.5 107 70.3" fill="none" stroke="#f4f9ff" stroke-width="2.15" opacity="0.06440000000000001" stroke-linejoin="round" stroke-linecap="round"/><path d="M10 43.0 Q62 61.5 107 70.3" fill="none" stroke="#f4f9ff" stroke-width="0.35" opacity="0.25760000000000005" stroke-linejoin="round" stroke-linecap="round"/><path d="M18 49.5 Q62 64.8 107 71.5" fill="none" stroke="#f4f9ff" stroke-width="12.35" opacity="0.010750000000000003" stroke-linejoin="round" stroke-linecap="round"/><path d="M18 49.5 Q62 64.8 107 71.5" fill="none" stroke="#f4f9ff" stroke-width="7.35" opacity="0.023650000000000004" stroke-linejoin="round" stroke-linecap="round"/><path d="M18 49.5 Q62 64.8 107 71.5" fill="none" stroke="#f4f9ff" stroke-width="4.35" opacity="0.04300000000000001" stroke-linejoin="round" stroke-linecap="round"/><path d="M18 49.5 Q62 64.8 107 71.5" fill="none" stroke="#f4f9ff" stroke-width="2.15" opacity="0.09890000000000002" stroke-linejoin="round" stroke-linecap="round"/><path d="M18 49.5 Q62 64.8 107 71.5" fill="none" stroke="#f4f9ff" stroke-width="0.35" opacity="0.39560000000000006" stroke-linejoin="round" stroke-linecap="round"/><path d="M26 56.0 Q62 68.0 107 72.7" fill="none" stroke="#f4f9ff" stroke-width="12.35" opacity="0.014500000000000002" stroke-linejoin="round" stroke-linecap="round"/><path d="M26 56.0 Q62 68.0 107 72.7" fill="none" stroke="#f4f9ff" stroke-width="7.35" opacity="0.031900000000000005" stroke-linejoin="round" stroke-linecap="round"/><path d="M26 56.0 Q62 68.0 107 72.7" fill="none" stroke="#f4f9ff" stroke-width="4.35" opacity="0.05800000000000001" stroke-linejoin="round" stroke-linecap="round"/><path d="M26 56.0 Q62 68.0 107 72.7" fill="none" stroke="#f4f9ff" stroke-width="2.15" opacity="0.13340000000000002" stroke-linejoin="round" stroke-linecap="round"/><path d="M26 56.0 Q62 68.0 107 72.7" fill="none" stroke="#f4f9ff" stroke-width="0.35" opacity="0.5336000000000001" stroke-linejoin="round" stroke-linecap="round"/><path d="M34 62.5 Q62 71.2 107 73.8" fill="none" stroke="#f4f9ff" stroke-width="12.35" opacity="0.007000000000000001" stroke-linejoin="round" stroke-linecap="round"/><path d="M34 62.5 Q62 71.2 107 73.8" fill="none" stroke="#f4f9ff" stroke-width="7.35" opacity="0.015400000000000002" stroke-linejoin="round" stroke-linecap="round"/><path d="M34 62.5 Q62 71.2 107 73.8" fill="none" stroke="#f4f9ff" stroke-width="4.35" opacity="0.028000000000000004" stroke-linejoin="round" stroke-linecap="round"/><path d="M34 62.5 Q62 71.2 107 73.8" fill="none" stroke="#f4f9ff" stroke-width="2.15" opacity="0.06440000000000001" stroke-linejoin="round" stroke-linecap="round"/><path d="M34 62.5 Q62 71.2 107 73.8" fill="none" stroke="#f4f9ff" stroke-width="0.35" opacity="0.25760000000000005" stroke-linejoin="round" stroke-linecap="round"/><path d="M10 69.0 Q62 74.5 107 75.0" fill="none" stroke="#f4f9ff" stroke-width="12.35" opacity="0.010750000000000003" stroke-linejoin="round" stroke-linecap="round"/><path d="M10 69.0 Q62 74.5 107 75.0" fill="none" stroke="#f4f9ff" stroke-width="7.35" opacity="0.023650000000000004" stroke-linejoin="round" stroke-linecap="round"/><path d="M10 69.0 Q62 74.5 107 75.0" fill="none" stroke="#f4f9ff" stroke-width="4.35" opacity="0.04300000000000001" stroke-linejoin="round" stroke-linecap="round"/><path d="M10 69.0 Q62 74.5 107 75.0" fill="none" stroke="#f4f9ff" stroke-width="2.15" opacity="0.09890000000000002" stroke-linejoin="round" stroke-linecap="round"/><path d="M10 69.0 Q62 74.5 107 75.0" fill="none" stroke="#f4f9ff" stroke-width="0.35" opacity="0.39560000000000006" stroke-linejoin="round" stroke-linecap="round"/><path d="M18 75.5 Q62 77.8 107 76.2" fill="none" stroke="#f4f9ff" stroke-width="12.35" opacity="0.014500000000000002" stroke-linejoin="round" stroke-linecap="round"/><path d="M18 75.5 Q62 77.8 107 76.2" fill="none" stroke="#f4f9ff" stroke-width="7.35" opacity="0.031900000000000005" stroke-linejoin="round" stroke-linecap="round"/><path d="M18 75.5 Q62 77.8 107 76.2" fill="none" stroke="#f4f9ff" stroke-width="4.35" opacity="0.05800000000000001" stroke-linejoin="round" stroke-linecap="round"/><path d="M18 75.5 Q62 77.8 107 76.2" fill="none" stroke="#f4f9ff" stroke-width="2.15" opacity="0.13340000000000002" stroke-linejoin="round" stroke-linecap="round"/><path d="M18 75.5 Q62 77.8 107 76.2" fill="none" stroke="#f4f9ff" stroke-width="0.35" opacity="0.5336000000000001" stroke-linejoin="round" stroke-linecap="round"/><path d="M26 82.0 Q62 81.0 107 77.4" fill="none" stroke="#f4f9ff" stroke-width="12.35" opacity="0.007000000000000001" stroke-linejoin="round" stroke-linecap="round"/><path d="M26 82.0 Q62 81.0 107 77.4" fill="none" stroke="#f4f9ff" stroke-width="7.35" opacity="0.015400000000000002" stroke-linejoin="round" stroke-linecap="round"/><path d="M26 82.0 Q62 81.0 107 77.4" fill="none" stroke="#f4f9ff" stroke-width="4.35" opacity="0.028000000000000004" stroke-linejoin="round" stroke-linecap="round"/><path d="M26 82.0 Q62 81.0 107 77.4" fill="none" stroke="#f4f9ff" stroke-width="2.15" opacity="0.06440000000000001" stroke-linejoin="round" stroke-linecap="round"/><path d="M26 82.0 Q62 81.0 107 77.4" fill="none" stroke="#f4f9ff" stroke-width="0.35" opacity="0.25760000000000005" stroke-linejoin="round" stroke-linecap="round"/><path d="M34 88.5 Q62 84.2 107 78.5" fill="none" stroke="#f4f9ff" stroke-width="12.35" opacity="0.010750000000000003" stroke-linejoin="round" stroke-linecap="round"/><path d="M34 88.5 Q62 84.2 107 78.5" fill="none" stroke="#f4f9ff" stroke-width="7.35" opacity="0.023650000000000004" stroke-linejoin="round" stroke-linecap="round"/><path d="M34 88.5 Q62 84.2 107 78.5" fill="none" stroke="#f4f9ff" stroke-width="4.35" opacity="0.04300000000000001" stroke-linejoin="round" stroke-linecap="round"/><path d="M34 88.5 Q62 84.2 107 78.5" fill="none" stroke="#f4f9ff" stroke-width="2.15" opacity="0.09890000000000002" stroke-linejoin="round" stroke-linecap="round"/><path d="M34 88.5 Q62 84.2 107 78.5" fill="none" stroke="#f4f9ff" stroke-width="0.35" opacity="0.39560000000000006" stroke-linejoin="round" stroke-linecap="round"/><path d="M10 95.0 Q62 87.5 107 79.7" fill="none" stroke="#f4f9ff" stroke-width="12.35" opacity="0.014500000000000002" stroke-linejoin="round" stroke-linecap="round"/><path d="M10 95.0 Q62 87.5 107 79.7" fill="none" stroke="#f4f9ff" stroke-width="7.35" opacity="0.031900000000000005" stroke-linejoin="round" stroke-linecap="round"/><path d="M10 95.0 Q62 87.5 107 79.7" fill="none" stroke="#f4f9ff" stroke-width="4.35" opacity="0.05800000000000001" stroke-linejoin="round" stroke-linecap="round"/><path d="M10 95.0 Q62 87.5 107 79.7" fill="none" stroke="#f4f9ff" stroke-width="2.15" opacity="0.13340000000000002" stroke-linejoin="round" stroke-linecap="round"/><path d="M10 95.0 Q62 87.5 107 79.7" fill="none" stroke="#f4f9ff" stroke-width="0.35" opacity="0.5336000000000001" stroke-linejoin="round" stroke-linecap="round"/><path d="M18 101.5 Q62 90.8 107 80.9" fill="none" stroke="#f4f9ff" stroke-width="12.35" opacity="0.007000000000000001" stroke-linejoin="round" stroke-linecap="round"/><path d="M18 101.5 Q62 90.8 107 80.9" fill="none" stroke="#f4f9ff" stroke-width="7.35" opacity="0.015400000000000002" stroke-linejoin="round" stroke-linecap="round"/><path d="M18 101.5 Q62 90.8 107 80.9" fill="none" stroke="#f4f9ff" stroke-width="4.35" opacity="0.028000000000000004" stroke-linejoin="round" stroke-linecap="round"/><path d="M18 101.5 Q62 90.8 107 80.9" fill="none" stroke="#f4f9ff" stroke-width="2.15" opacity="0.06440000000000001" stroke-linejoin="round" stroke-linecap="round"/><path d="M18 101.5 Q62 90.8 107 80.9" fill="none" stroke="#f4f9ff" stroke-width="0.35" opacity="0.25760000000000005" stroke-linejoin="round" stroke-linecap="round"/><path d="M26 108.0 Q62 94.0 107 82.0" fill="none" stroke="#f4f9ff" stroke-width="12.35" opacity="0.010750000000000003" stroke-linejoin="round" stroke-linecap="round"/><path d="M26 108.0 Q62 94.0 107 82.0" fill="none" stroke="#f4f9ff" stroke-width="7.35" opacity="0.023650000000000004" stroke-linejoin="round" stroke-linecap="round"/><path d="M26 108.0 Q62 94.0 107 82.0" fill="none" stroke="#f4f9ff" stroke-width="4.35" opacity="0.04300000000000001" stroke-linejoin="round" stroke-linecap="round"/><path d="M26 108.0 Q62 94.0 107 82.0" fill="none" stroke="#f4f9ff" stroke-width="2.15" opacity="0.09890000000000002" stroke-linejoin="round" stroke-linecap="round"/><path d="M26 108.0 Q62 94.0 107 82.0" fill="none" stroke="#f4f9ff" stroke-width="0.35" opacity="0.39560000000000006" stroke-linejoin="round" stroke-linecap="round"/><path d="M34 114.5 Q62 97.2 107 83.2" fill="none" stroke="#f4f9ff" stroke-width="12.35" opacity="0.014500000000000002" stroke-linejoin="round" stroke-linecap="round"/><path d="M34 114.5 Q62 97.2 107 83.2" fill="none" stroke="#f4f9ff" stroke-width="7.35" opacity="0.031900000000000005" stroke-linejoin="round" stroke-linecap="round"/><path d="M34 114.5 Q62 97.2 107 83.2" fill="none" stroke="#f4f9ff" stroke-width="4.35" opacity="0.05800000000000001" stroke-linejoin="round" stroke-linecap="round"/><path d="M34 114.5 Q62 97.2 107 83.2" fill="none" stroke="#f4f9ff" stroke-width="2.15" opacity="0.13340000000000002" stroke-linejoin="round" stroke-linecap="round"/><path d="M34 114.5 Q62 97.2 107 83.2" fill="none" stroke="#f4f9ff" stroke-width="0.35" opacity="0.5336000000000001" stroke-linejoin="round" stroke-linecap="round"/><path d="M6 79 L112 79 M10 83 L112 81" fill="none" stroke="#f4f9ff" stroke-width="13.5" opacity="0.025" stroke-linejoin="round" stroke-linecap="round"/><path d="M6 79 L112 79 M10 83 L112 81" fill="none" stroke="#f4f9ff" stroke-width="8.5" opacity="0.055" stroke-linejoin="round" stroke-linecap="round"/><path d="M6 79 L112 79 M10 83 L112 81" fill="none" stroke="#f4f9ff" stroke-width="5.5" opacity="0.1" stroke-linejoin="round" stroke-linecap="round"/><path d="M6 79 L112 79 M10 83 L112 81" fill="none" stroke="#f4f9ff" stroke-width="3.3" opacity="0.23" stroke-linejoin="round" stroke-linecap="round"/><path d="M6 79 L112 79 M10 83 L112 81" fill="none" stroke="#f4f9ff" stroke-width="1.5" opacity="0.92" stroke-linejoin="round" stroke-linecap="round"/><path d="M32 51 L65 61 98 74 72 72Z" fill="url(#metal)" stroke="#f4f8ff" stroke-width="0.6" opacity="1" stroke-linejoin="round" stroke-linecap="round"/><path d="M52 56 L90 61 116 77 102 77 84 69Z" fill="url(#metal)" stroke="#f4f8ff" stroke-width="0.6" opacity="1" stroke-linejoin="round" stroke-linecap="round"/><path d="M31 109 L71 87 98 85 65 103Z" fill="url(#metal)" stroke="#f4f8ff" stroke-width="0.6" opacity="1" stroke-linejoin="round" stroke-linecap="round"/><path d="M55 104 L89 99 116 83 102 84 85 92Z" fill="url(#metal)" stroke="#f4f8ff" stroke-width="0.6" opacity="1" stroke-linejoin="round" stroke-linecap="round"/><path d="M32 51 L72 72 93 73 62 63Z" fill="url(#dark)" opacity="1" stroke-linejoin="round" stroke-linecap="round"/><path d="M32 108 L72 88 94 86 62 99Z" fill="url(#dark)" opacity="1" stroke-linejoin="round" stroke-linecap="round"/><ellipse cx="104" cy="80" rx="13" ry="13" fill="url(#core)" opacity="1"/><ellipse cx="104" cy="80" rx="7.5" ry="7.5" fill="url(#glass)" opacity="1"/><path d="M104 71 A9 9 0 1 1 103.9 71" fill="none" stroke="#f4f9ff" stroke-width="12.8" opacity="0.025" stroke-linejoin="round" stroke-linecap="round"/><path d="M104 71 A9 9 0 1 1 103.9 71" fill="none" stroke="#f4f9ff" stroke-width="7.8" opacity="0.055" stroke-linejoin="round" stroke-linecap="round"/><path d="M104 71 A9 9 0 1 1 103.9 71" fill="none" stroke="#f4f9ff" stroke-width="4.8" opacity="0.1" stroke-linejoin="round" stroke-linecap="round"/><path d="M104 71 A9 9 0 1 1 103.9 71" fill="none" stroke="#f4f9ff" stroke-width="2.6" opacity="0.23" stroke-linejoin="round" stroke-linecap="round"/><path d="M104 71 A9 9 0 1 1 103.9 71" fill="none" stroke="#f4f9ff" stroke-width="0.8" opacity="0.92" stroke-linejoin="round" stroke-linecap="round"/><path d="M56.7 47 Q58 46.6 58 44.79 Q58.5 47 59.3 47 Q58 47.5 58 49.21 Q57.6 47 56.7 47Z" fill="#f8fcff" opacity="0.8" stroke-linejoin="round" stroke-linecap="round"/><path d="M57.7 103 Q59 102.6 59 100.79 Q59.5 103 60.3 103 Q59 103.5 59 105.21 Q58.6 103 57.7 103Z" fill="#f8fcff" opacity="0.8" stroke-linejoin="round" stroke-linecap="round"/><path d="M34.7 91 Q36 90.6 36 88.79 Q36.5 91 37.3 91 Q36 91.5 36 93.21 Q35.6 91 34.7 91Z" fill="#f8fcff" opacity="0.8" stroke-linejoin="round" stroke-linecap="round"/><path d="M81 114 Q82 113.6 82 112.3 Q82.5 114 83 114 Q82 114.5 82 115.7 Q81.6 114 81 114Z" fill="#f8fcff" opacity="0.8" stroke-linejoin="round" stroke-linecap="round"/></svg>
